<mxfile host="65bd71144e">
    <diagram id="25GN44gXnawcTBFhzzNe" name="Page-1">
        <mxGraphModel dx="690" dy="4457" grid="1" gridSize="10" guides="1" tooltips="1" connect="1" arrows="1" fold="1" page="1" pageScale="1" pageWidth="1200" pageHeight="1920" math="0" shadow="0">
            <root>
                <mxCell id="0"/>
                <mxCell id="1" parent="0"/>
                <mxCell id="5WIooERZoBzcB6byuIqn-1" value="" style="rounded=0;whiteSpace=wrap;html=1;labelBorderColor=none;labelBackgroundColor=none;fontColor=#FFFFFF;" parent="1" vertex="1">
                    <mxGeometry y="-3800" width="1200" height="1920" as="geometry"/>
                </mxCell>
                <mxCell id="5WIooERZoBzcB6byuIqn-4" value="" style="rounded=0;whiteSpace=wrap;html=1;gradientColor=none;labelBorderColor=none;labelBackgroundColor=none;fontColor=#FFFFFF;" parent="1" vertex="1">
                    <mxGeometry x="10" y="-3790" width="1180" height="60" as="geometry"/>
                </mxCell>
                <mxCell id="5WIooERZoBzcB6byuIqn-5" value="&lt;font style=&quot;font-size: 37px&quot;&gt;Logo&lt;/font&gt;" style="rounded=0;whiteSpace=wrap;html=1;fontFamily=Helvetica;fontSize=48;gradientColor=none;labelBorderColor=none;labelBackgroundColor=none;fontColor=#FFFFFF;" parent="1" vertex="1">
                    <mxGeometry x="20" y="-3785" width="100" height="50" as="geometry"/>
                </mxCell>
                <mxCell id="5WIooERZoBzcB6byuIqn-8" value="&lt;font style=&quot;font-size: 37px&quot;&gt;Geo&lt;/font&gt;" style="rounded=0;whiteSpace=wrap;html=1;fontFamily=Helvetica;fontSize=48;gradientColor=none;labelBorderColor=none;labelBackgroundColor=none;fontColor=#FFFFFF;" parent="1" vertex="1">
                    <mxGeometry x="130" y="-3785" width="100" height="50" as="geometry"/>
                </mxCell>
                <mxCell id="5WIooERZoBzcB6byuIqn-10" value="&lt;font style=&quot;font-size: 37px&quot;&gt;Search Bar&lt;/font&gt;" style="rounded=0;whiteSpace=wrap;html=1;fontFamily=Helvetica;fontSize=48;gradientColor=none;labelBorderColor=none;labelBackgroundColor=none;fontColor=#FFFFFF;" parent="1" vertex="1">
                    <mxGeometry x="240" y="-3785" width="620" height="50" as="geometry"/>
                </mxCell>
                <mxCell id="5WIooERZoBzcB6byuIqn-12" value="&lt;pre&gt;&lt;font face=&quot;Helvetica&quot; style=&quot;font-size: 36px&quot;&gt;Cat&lt;/font&gt;&lt;/pre&gt;" style="rounded=0;whiteSpace=wrap;html=1;fontFamily=Helvetica;fontSize=48;gradientColor=none;align=left;labelBorderColor=none;labelBackgroundColor=none;fontColor=#FFFFFF;" parent="1" vertex="1">
                    <mxGeometry x="240" y="-3785" width="60" height="50" as="geometry"/>
                </mxCell>
                <mxCell id="5WIooERZoBzcB6byuIqn-13" value="&lt;font style=&quot;font-size: 25px ; line-height: 3.1&quot;&gt;srch&lt;/font&gt;" style="rounded=0;whiteSpace=wrap;html=1;fontFamily=Helvetica;fontSize=48;gradientColor=none;align=left;labelBorderColor=none;labelBackgroundColor=none;fontColor=#FFFFFF;" parent="1" vertex="1">
                    <mxGeometry x="810" y="-3785" width="50" height="50" as="geometry"/>
                </mxCell>
                <mxCell id="5WIooERZoBzcB6byuIqn-14" value="&lt;font&gt;&lt;b&gt;EN&lt;/b&gt;&lt;/font&gt;" style="rounded=0;whiteSpace=wrap;html=1;fontFamily=Helvetica;fontSize=17;gradientColor=none;align=left;labelBorderColor=none;labelBackgroundColor=none;fontColor=#FFFFFF;" parent="1" vertex="1">
                    <mxGeometry x="870" y="-3785" width="40" height="50" as="geometry"/>
                </mxCell>
                <mxCell id="5WIooERZoBzcB6byuIqn-15" value="Login&lt;br&gt;" style="rounded=0;whiteSpace=wrap;html=1;fontFamily=Helvetica;fontSize=17;gradientColor=none;align=left;labelBorderColor=none;labelBackgroundColor=none;fontColor=#FFFFFF;" parent="1" vertex="1">
                    <mxGeometry x="920" y="-3785" width="120" height="50" as="geometry"/>
                </mxCell>
                <mxCell id="5WIooERZoBzcB6byuIqn-16" value="Order" style="rounded=0;whiteSpace=wrap;html=1;labelBackgroundColor=none;labelBorderColor=none;fontSize=17;align=left;fontColor=#FFFFFF;" parent="1" vertex="1">
                    <mxGeometry x="1050" y="-3785" width="60" height="50" as="geometry"/>
                </mxCell>
                <mxCell id="5WIooERZoBzcB6byuIqn-17" value="Cart" style="rounded=0;whiteSpace=wrap;html=1;labelBackgroundColor=none;labelBorderColor=none;fontSize=17;align=left;fontColor=#FFFFFF;" parent="1" vertex="1">
                    <mxGeometry x="1120" y="-3785" width="60" height="50" as="geometry"/>
                </mxCell>
                <mxCell id="5WIooERZoBzcB6byuIqn-19" value="" style="rounded=0;whiteSpace=wrap;html=1;labelBackgroundColor=none;labelBorderColor=none;fontSize=17;align=left;fontColor=#FFFFFF;" parent="1" vertex="1">
                    <mxGeometry x="10" y="-3730" width="1180" height="30" as="geometry"/>
                </mxCell>
                <mxCell id="5WIooERZoBzcB6byuIqn-20" value="All" style="rounded=0;whiteSpace=wrap;html=1;labelBackgroundColor=none;labelBorderColor=none;fontSize=17;align=left;fontColor=#FFFFFF;" parent="1" vertex="1">
                    <mxGeometry x="20" y="-3725" width="30" height="20" as="geometry"/>
                </mxCell>
                <mxCell id="5WIooERZoBzcB6byuIqn-22" value="Today's Deals" style="rounded=0;whiteSpace=wrap;html=1;labelBackgroundColor=none;labelBorderColor=none;fontSize=17;align=left;fontColor=#FFFFFF;" parent="1" vertex="1">
                    <mxGeometry x="60" y="-3725" width="110" height="20" as="geometry"/>
                </mxCell>
                <mxCell id="5WIooERZoBzcB6byuIqn-23" value="Customer Service" style="rounded=0;whiteSpace=wrap;html=1;labelBackgroundColor=none;labelBorderColor=none;fontSize=17;align=left;fontColor=#FFFFFF;" parent="1" vertex="1">
                    <mxGeometry x="180" y="-3725" width="140" height="20" as="geometry"/>
                </mxCell>
                <mxCell id="5WIooERZoBzcB6byuIqn-24" value="Registry" style="rounded=0;whiteSpace=wrap;html=1;labelBackgroundColor=none;labelBorderColor=none;fontSize=17;align=left;fontColor=#FFFFFF;" parent="1" vertex="1">
                    <mxGeometry x="330" y="-3725" width="70" height="20" as="geometry"/>
                </mxCell>
                <mxCell id="5WIooERZoBzcB6byuIqn-25" value="Gift Cards" style="rounded=0;whiteSpace=wrap;html=1;labelBackgroundColor=none;labelBorderColor=none;fontSize=17;align=left;fontColor=#FFFFFF;" parent="1" vertex="1">
                    <mxGeometry x="410" y="-3725" width="80" height="20" as="geometry"/>
                </mxCell>
                <mxCell id="5WIooERZoBzcB6byuIqn-26" value="Sell&lt;span style=&quot;font-family: monospace; font-size: 0px;&quot;&gt;%3CmxGraphModel%3E%3Croot%3E%3CmxCell%20id%3D%220%22%2F%3E%3CmxCell%20id%3D%221%22%20parent%3D%220%22%2F%3E%3CmxCell%20id%3D%222%22%20value%3D%22Gift%20Cards%22%20style%3D%22rounded%3D0%3BwhiteSpace%3Dwrap%3Bhtml%3D1%3BlabelBackgroundColor%3Dnone%3BlabelBorderColor%3Dnone%3BfontSize%3D17%3BfontColor%3D%23080808%3Balign%3Dleft%3B%22%20vertex%3D%221%22%20parent%3D%221%22%3E%3CmxGeometry%20x%3D%22430%22%20y%3D%22-3725%22%20width%3D%2280%22%20height%3D%2220%22%20as%3D%22geometry%22%2F%3E%3C%2FmxCell%3E%3C%2Froot%3E%3C%2FmxGraphModel%3E&lt;/span&gt;" style="rounded=0;whiteSpace=wrap;html=1;labelBackgroundColor=none;labelBorderColor=none;fontSize=17;align=left;fontColor=#FFFFFF;" parent="1" vertex="1">
                    <mxGeometry x="500" y="-3725" width="30" height="20" as="geometry"/>
                </mxCell>
                <mxCell id="5WIooERZoBzcB6byuIqn-27" value="Local Delivery in Israel" style="rounded=0;whiteSpace=wrap;html=1;labelBackgroundColor=none;labelBorderColor=none;fontSize=17;align=left;fontColor=#FFFFFF;" parent="1" vertex="1">
                    <mxGeometry x="540" y="-3725" width="180" height="20" as="geometry"/>
                </mxCell>
                <mxCell id="5WIooERZoBzcB6byuIqn-28" value="&lt;font style=&quot;font-size: 50px&quot;&gt;Sale&lt;/font&gt;" style="rounded=0;whiteSpace=wrap;html=1;fontSize=17;align=left;fontColor=#FFFFFF;" parent="1" vertex="1">
                    <mxGeometry x="415" y="-3700" width="270" height="60" as="geometry"/>
                </mxCell>
                <mxCell id="5WIooERZoBzcB6byuIqn-29" value="&lt;font style=&quot;font-size: 30px ; line-height: 2&quot;&gt;IMG&lt;/font&gt;" style="rounded=0;whiteSpace=wrap;html=1;fontSize=50;align=center;fontColor=#FFFFFF;" parent="1" vertex="1">
                    <mxGeometry x="125" y="-3510" width="60" height="60" as="geometry"/>
                </mxCell>
                <mxCell id="5WIooERZoBzcB6byuIqn-30" value="&lt;font style=&quot;font-size: 30px ; line-height: 2&quot;&gt;IMG&lt;/font&gt;" style="rounded=0;whiteSpace=wrap;html=1;fontSize=50;align=center;fontColor=#FFFFFF;" parent="1" vertex="1">
                    <mxGeometry x="125" y="-3440" width="60" height="60" as="geometry"/>
                </mxCell>
                <mxCell id="5WIooERZoBzcB6byuIqn-31" value="&lt;font style=&quot;font-size: 30px ; line-height: 2&quot;&gt;IMG&lt;/font&gt;" style="rounded=0;whiteSpace=wrap;html=1;fontSize=50;align=center;fontColor=#FFFFFF;" parent="1" vertex="1">
                    <mxGeometry x="125" y="-3370" width="60" height="60" as="geometry"/>
                </mxCell>
                <mxCell id="5WIooERZoBzcB6byuIqn-32" value="&lt;font style=&quot;font-size: 30px ; line-height: 2&quot;&gt;IMG&lt;/font&gt;" style="rounded=0;whiteSpace=wrap;html=1;fontSize=50;align=center;fontColor=#FFFFFF;" parent="1" vertex="1">
                    <mxGeometry x="125" y="-3300" width="60" height="60" as="geometry"/>
                </mxCell>
                <mxCell id="5WIooERZoBzcB6byuIqn-33" value="&lt;font style=&quot;font-size: 30px ; line-height: 2&quot;&gt;IMG&lt;/font&gt;" style="rounded=0;whiteSpace=wrap;html=1;fontSize=50;align=center;fontColor=#FFFFFF;" parent="1" vertex="1">
                    <mxGeometry x="125" y="-3230" width="60" height="60" as="geometry"/>
                </mxCell>
                <mxCell id="5WIooERZoBzcB6byuIqn-34" value="&lt;font style=&quot;font-size: 30px ; line-height: 2&quot;&gt;IMG&lt;/font&gt;" style="rounded=0;whiteSpace=wrap;html=1;fontSize=50;align=center;fontColor=#FFFFFF;" parent="1" vertex="1">
                    <mxGeometry x="125" y="-3160" width="60" height="60" as="geometry"/>
                </mxCell>
                <mxCell id="5WIooERZoBzcB6byuIqn-35" value="&lt;font style=&quot;font-size: 30px ; line-height: 2&quot;&gt;IMG&lt;/font&gt;" style="rounded=0;whiteSpace=wrap;html=1;fontSize=50;align=center;fontColor=#FFFFFF;" parent="1" vertex="1">
                    <mxGeometry x="125" y="-3090" width="60" height="60" as="geometry"/>
                </mxCell>
                <mxCell id="5WIooERZoBzcB6byuIqn-36" value="Preview" style="rounded=0;whiteSpace=wrap;html=1;fontSize=30;align=center;fontColor=#FFFFFF;" parent="1" vertex="1">
                    <mxGeometry x="205" y="-3510" width="440" height="660" as="geometry"/>
                </mxCell>
                <mxCell id="5WIooERZoBzcB6byuIqn-37" value="Text" style="rounded=0;whiteSpace=wrap;html=1;fontSize=30;align=center;fontColor=#FFFFFF;" parent="1" vertex="1">
                    <mxGeometry x="700" y="-3510" width="320" height="1020" as="geometry"/>
                </mxCell>
                <mxCell id="5WIooERZoBzcB6byuIqn-38" value="Section 1&lt;span style=&quot;font-family: monospace; font-size: 0px;&quot;&gt;%3CmxGraphModel%3E%3Croot%3E%3CmxCell%20id%3D%220%22%2F%3E%3CmxCell%20id%3D%221%22%20parent%3D%220%22%2F%3E%3CmxCell%20id%3D%222%22%20value%3D%22%26lt%3Bfont%20style%3D%26quot%3Bfont-size%3A%2030px%20%3B%20line-height%3A%202%26quot%3B%26gt%3BIMG%26lt%3B%2Ffont%26gt%3B%22%20style%3D%22rounded%3D0%3BwhiteSpace%3Dwrap%3Bhtml%3D1%3BfontSize%3D50%3BfontColor%3D%23080808%3Balign%3Dcenter%3B%22%20vertex%3D%221%22%20parent%3D%221%22%3E%3CmxGeometry%20x%3D%22200%22%20y%3D%22-3160%22%20width%3D%2260%22%20height%3D%2260%22%20as%3D%22geometry%22%2F%3E%3C%2FmxCell%3E%3C%2Froot%3E%3C%2FmxGraphModel%3E&lt;/span&gt;" style="rounded=0;whiteSpace=wrap;html=1;fontSize=30;align=center;fontColor=#FFFFFF;" parent="1" vertex="1">
                    <mxGeometry x="710" y="-3500" width="300" height="130" as="geometry"/>
                </mxCell>
                <mxCell id="5WIooERZoBzcB6byuIqn-40" value="Section 2&lt;span style=&quot;font-family: monospace; font-size: 0px;&quot;&gt;%3CmxGraphModel%3E%3Croot%3E%3CmxCell%20id%3D%220%22%2F%3E%3CmxCell%20id%3D%221%22%20parent%3D%220%22%2F%3E%3CmxCell%20id%3D%222%22%20value%3D%22%26lt%3Bfont%20style%3D%26quot%3Bfont-size%3A%2030px%20%3B%20line-height%3A%202%26quot%3B%26gt%3BIMG%26lt%3B%2Ffont%26gt%3B%22%20style%3D%22rounded%3D0%3BwhiteSpace%3Dwrap%3Bhtml%3D1%3BfontSize%3D50%3BfontColor%3D%23080808%3Balign%3Dcenter%3B%22%20vertex%3D%221%22%20parent%3D%221%22%3E%3CmxGeometry%20x%3D%22200%22%20y%3D%22-3160%22%20width%3D%2260%22%20height%3D%2260%22%20as%3D%22geometry%22%2F%3E%3C%2FmxCell%3E%3C%2Froot%3E%3C%2FmxGraphModel%3E&lt;/span&gt;" style="rounded=0;whiteSpace=wrap;html=1;fontSize=30;align=center;fontColor=#FFFFFF;" parent="1" vertex="1">
                    <mxGeometry x="710" y="-3360" width="300" height="130" as="geometry"/>
                </mxCell>
                <mxCell id="5WIooERZoBzcB6byuIqn-41" value="Section 3&lt;span style=&quot;font-family: monospace; font-size: 0px;&quot;&gt;%3CmxGraphModel%3E%3Croot%3E%3CmxCell%20id%3D%220%22%2F%3E%3CmxCell%20id%3D%221%22%20parent%3D%220%22%2F%3E%3CmxCell%20id%3D%222%22%20value%3D%22%26lt%3Bfont%20style%3D%26quot%3Bfont-size%3A%2030px%20%3B%20line-height%3A%202%26quot%3B%26gt%3BIMG%26lt%3B%2Ffont%26gt%3B%22%20style%3D%22rounded%3D0%3BwhiteSpace%3Dwrap%3Bhtml%3D1%3BfontSize%3D50%3BfontColor%3D%23080808%3Balign%3Dcenter%3B%22%20vertex%3D%221%22%20parent%3D%221%22%3E%3CmxGeometry%20x%3D%22200%22%20y%3D%22-3160%22%20width%3D%2260%22%20height%3D%2260%22%20as%3D%22geometry%22%2F%3E%3C%2FmxCell%3E%3C%2Froot%3E%3C%2FmxGraphModel%3&lt;/span&gt;" style="rounded=0;whiteSpace=wrap;html=1;fontSize=30;align=center;fontColor=#FFFFFF;" parent="1" vertex="1">
                    <mxGeometry x="710" y="-3220" width="300" height="40" as="geometry"/>
                </mxCell>
                <mxCell id="5WIooERZoBzcB6byuIqn-42" value="Section 4&lt;span style=&quot;font-family: monospace; font-size: 0px;&quot;&gt;%3CmxGraphModel%3E%3Croot%3E%3CmxCell%20id%3D%220%22%2F%3E%3CmxCell%20id%3D%221%22%20parent%3D%220%22%2F%3E%3CmxCell%20id%3D%222%22%20value%3D%22%26lt%3Bfont%20style%3D%26quot%3Bfont-size%3A%2030px%20%3B%20line-height%3A%202%26quot%3B%26gt%3BIMG%26lt%3B%2Ffont%26gt%3B%22%20style%3D%22rounded%3D0%3BwhiteSpace%3Dwrap%3Bhtml%3D1%3BfontSize%3D50%3BfontColor%3D%23080808%3Balign%3Dcenter%3B%22%20vertex%3D%221%22%20parent%3D%221%22%3E%3CmxGeometry%20x%3D%22200%22%20y%3D%22-3160%22%20width%3D%2260%22%20height%3D%2260%22%20as%3D%22geometry%22%2F%3E%3C%2FmxCell%3E%3C%2Froot%3E%3C%2FmxGraphModel%3E&lt;/span&gt;" style="rounded=0;whiteSpace=wrap;html=1;fontSize=30;align=center;fontColor=#FFFFFF;" parent="1" vertex="1">
                    <mxGeometry x="710" y="-3170" width="300" height="130" as="geometry"/>
                </mxCell>
                <mxCell id="5WIooERZoBzcB6byuIqn-43" value="Carousel" style="rounded=0;whiteSpace=wrap;html=1;fontSize=30;align=center;fontColor=#FFFFFF;" parent="1" vertex="1">
                    <mxGeometry x="90" y="-2430" width="980" height="260" as="geometry"/>
                </mxCell>
                <mxCell id="5WIooERZoBzcB6byuIqn-44" value="Card" style="rounded=0;whiteSpace=wrap;html=1;fontSize=30;align=center;fontColor=#FFFFFF;" parent="1" vertex="1">
                    <mxGeometry x="110" y="-2420" width="150" height="240" as="geometry"/>
                </mxCell>
                <mxCell id="5WIooERZoBzcB6byuIqn-45" value="Card" style="rounded=0;whiteSpace=wrap;html=1;fontSize=30;align=center;fontColor=#FFFFFF;" parent="1" vertex="1">
                    <mxGeometry x="270" y="-2420" width="150" height="240" as="geometry"/>
                </mxCell>
                <mxCell id="5WIooERZoBzcB6byuIqn-46" value="Card" style="rounded=0;whiteSpace=wrap;html=1;fontSize=30;align=center;fontColor=#FFFFFF;" parent="1" vertex="1">
                    <mxGeometry x="430" y="-2420" width="150" height="240" as="geometry"/>
                </mxCell>
                <mxCell id="5WIooERZoBzcB6byuIqn-48" value="Card" style="rounded=0;whiteSpace=wrap;html=1;fontSize=30;align=center;fontColor=#FFFFFF;" parent="1" vertex="1">
                    <mxGeometry x="590" y="-2420" width="150" height="240" as="geometry"/>
                </mxCell>
                <mxCell id="5WIooERZoBzcB6byuIqn-49" value="Card" style="rounded=0;whiteSpace=wrap;html=1;fontSize=30;align=center;fontColor=#FFFFFF;" parent="1" vertex="1">
                    <mxGeometry x="750" y="-2420" width="150" height="240" as="geometry"/>
                </mxCell>
                <mxCell id="5WIooERZoBzcB6byuIqn-50" value="Card" style="rounded=0;whiteSpace=wrap;html=1;fontSize=30;align=center;fontColor=#FFFFFF;" parent="1" vertex="1">
                    <mxGeometry x="910" y="-2420" width="150" height="240" as="geometry"/>
                </mxCell>
            </root>
        </mxGraphModel>
    </diagram>
</mxfile>